# xmcd CD database file
#
# Track frame offsets:
#	150
#	18157
#	39120
#	58017
#	74757
#	95797
#	121920
#	152372
#	178702
#	208297
#	260265
#
# Disc length: 3782 seconds
#
# Revision: 0
# Processed by: cddbd v1.5.1PL0 Copyright (c) Steve Scherf et al.
# Submitted via: CDex 1.50
#
DISCID=940ec40b
DTITLE=Brass Highlights - Disc 1 - Trumpet 1
DYEAR=1900
DGENRE=Jazz
TTITLE0=Armstrong, Louis - Black and Tan Fantasy
TTITLE1=Gillespie, Dizzy - Be´s That Way
TTITLE2=Newman, Joe and Jones, Thad - Duet
TTITLE3=Brown, Clifford - Easy Living
TTITLE4=Farmer, Art - Mox Nix
TTITLE5=Jones, Carmell - Sad March
TTITLE6=Morgan, Lee - The Sixth Sense
TTITLE7=Cherry, Don - The Thing
TTITLE8=Ellis, Don - Passacaglia and Fugue
TTITLE9=Byrd, Donald - Estavanico
TTITLE10=Truffaz, Erik - Sweet Mercy
EXTD=
EXTT0=
EXTT1=
EXTT2=
EXTT3=
EXTT4=
EXTT5=
EXTT6=
EXTT7=
EXTT8=
EXTT9=
EXTT10=
PLAYORDER=
